<svg xmlns="http://www.w3.org/2000/svg" width="626.062" height="585.925" viewBox="0 0 626.062 585.925">
  <path id="Path_351" data-name="Path 351" d="M28.7,121.095C45.13,90.146,69.06,63.345,101.285,44.042,160.949,8.786,233.217-2.7,301.815.49c66.365,3.191,135.441,19.941,184.1,67.8,1.914,1.755,3.669,3.669,5.424,5.584,39.723,42.435,55.2,108.64,56.474,165.273,1.436,70.034-21.856,148.2-73.862,197.179-42.754,40.2-106.885,53.443-163.519,59.026-74.022,7.179-151.873,4.307-214.249-41.159-53.6-38.925-84.232-101.621-93.166-166.071C-4.8,231.171,2.376,170.868,28.7,121.095Z" transform="matrix(0.985, -0.174, 0.174, 0.985, -0.024, 95.156)" fill="#ff6700" opacity="0.9"/>
</svg>
