<svg xmlns="http://www.w3.org/2000/svg" width="153.507" height="139.643" viewBox="0 0 153.507 139.643">
  <path id="Path_352" data-name="Path 352" d="M8.062,33.917A54.735,54.735,0,0,1,28.4,12.327C45.119,2.448,65.368-.77,84.589.124c18.6.894,37.951,5.588,51.585,19,.536.492,1.028,1.028,1.52,1.565,11.13,11.89,15.466,30.441,15.824,46.31.4,19.624-6.124,41.527-20.7,55.25C120.841,133.51,102.872,137.221,87,138.785c-20.741,2.012-42.555,1.207-60.033-11.533C11.951,116.345,3.368,98.778.865,80.719-1.326,64.761.686,47.864,8.062,33.917Z" transform="translate(-0.028 0.019)" fill="#ff6700" opacity="0.9"/>
</svg>
