<svg xmlns="http://www.w3.org/2000/svg" width="16.72" height="13.239" viewBox="0 0 16.72 13.239">
  <g id="Path_447" data-name="Path 447" transform="translate(-291.7 -293.831)">
    <path id="Path_245" data-name="Path 245" d="M308.42,300.45a.869.869,0,0,1-.27.64l-5.65,5.66a1.12,1.12,0,0,1-.79.32,1.085,1.085,0,0,1-.75-1.85l3.67-3.68H292.79a1.107,1.107,0,0,1-.77-.31,1.122,1.122,0,0,1-.32-.78,1.093,1.093,0,0,1,1.09-1.09h11.84l-3.67-3.67a1.089,1.089,0,0,1,1.54-1.54l5.67,5.66A.942.942,0,0,1,308.42,300.45Z" fill="#90d1e3"/>
  </g>
</svg>
