<svg xmlns="http://www.w3.org/2000/svg" width="23.99" height="18.97" viewBox="0 0 23.99 18.97">
  <path id="Path_239" data-name="Path 239" d="M6.38,8.922a.589.589,0,0,0,.173.421l8.276,8.276a.862.862,0,0,0,.606.247.841.841,0,0,0,.606-.247.859.859,0,0,0,0-1.212L9.423,9.788H28.5a.841.841,0,0,0,.606-.247.851.851,0,0,0,.26-.619.868.868,0,0,0-.866-.866H9.423l6.618-6.618a.859.859,0,0,0,0-1.212.874.874,0,0,0-1.225,0L6.54,8.5A.634.634,0,0,0,6.38,8.922Z" transform="translate(-5.88 0.604)" fill="#fff" stroke="#fff" stroke-width="1"/>
</svg>
