<svg xmlns="http://www.w3.org/2000/svg" width="23.99" height="18.97" viewBox="0 0 23.99 18.97">
  <path id="Path_238" data-name="Path 238" d="M29.369,8.922a.589.589,0,0,1-.173.421L20.92,17.619a.862.862,0,0,1-.606.247.841.841,0,0,1-.606-.247.859.859,0,0,1,0-1.212l6.618-6.618H7.246a.841.841,0,0,1-.606-.247.851.851,0,0,1-.26-.619.868.868,0,0,1,.866-.866h19.08L19.708,1.438a.859.859,0,0,1,0-1.212.874.874,0,0,1,1.225,0L29.208,8.5A.634.634,0,0,1,29.369,8.922Z" transform="translate(-5.88 0.604)" fill="#fff" stroke="#fff" stroke-width="1"/>
</svg>
