<?xml version="1.0" standalone="no"?>
<!DOCTYPE svg PUBLIC "-//W3C//DTD SVG 20010904//EN"
 "http://www.w3.org/TR/2001/REC-SVG-20010904/DTD/svg10.dtd">
<svg version="1.0" xmlns="http://www.w3.org/2000/svg"
 width="768.000000pt" height="768.000000pt" viewBox="0 0 768.000000 768.000000"
 preserveAspectRatio="xMidYMid meet">
<metadata>
Created by potrace 1.11, written by Peter Selinger 2001-2013
</metadata>
<g transform="translate(0.000000,768.000000) scale(0.100000,-0.100000)"
fill="#000000" stroke="none">
<path d="M4053 7658 c-26 -28 -56 -106 -49 -130 2 -10 1 -18 -3 -18 -4 0 -6
-11 -6 -25 2 -25 -9 -108 -19 -154 -13 -58 -52 -82 -161 -97 -90 -13 -614
-162 -705 -201 -8 -3 -22 -7 -31 -9 -70 -14 -371 -150 -524 -236 -99 -56 -193
-109 -208 -117 -58 -32 -163 -100 -212 -138 -16 -13 -39 -30 -50 -38 -133 -99
-314 -256 -424 -367 -36 -38 -72 -74 -79 -80 -7 -7 -56 -67 -110 -133 -53 -66
-100 -121 -104 -123 -4 -2 -8 -8 -8 -13 0 -5 -8 -17 -17 -28 -51 -54 -148
-202 -206 -312 -61 -117 -180 -399 -201 -477 -53 -192 -2 -385 139 -528 119
-122 251 -153 465 -109 70 14 86 18 95 23 6 4 16 7 22 8 24 4 158 57 293 116
311 137 588 290 725 399 274 221 492 435 670 659 33 41 62 77 65 80 3 3 17 21
30 40 13 19 27 37 30 40 3 3 22 28 41 55 18 28 36 52 40 55 9 8 156 233 169
260 7 14 16 27 20 30 10 8 80 130 80 141 0 5 3 9 8 9 4 0 12 10 18 23 6 12 40
79 76 149 72 140 122 257 173 409 19 56 43 110 55 121 11 10 20 16 20 13 0 -3
10 -1 21 6 21 11 133 14 194 5 17 -3 53 -7 80 -11 28 -3 66 -8 85 -10 54 -7
101 -15 145 -27 22 -5 50 -12 62 -14 12 -2 116 -36 232 -74 206 -69 351 -126
401 -160 14 -9 41 -27 61 -41 66 -44 120 -99 174 -180 69 -100 98 -163 99
-214 1 -37 -1 -40 -37 -52 -35 -12 -69 -20 -122 -28 -68 -10 -102 -18 -116
-26 -9 -4 -19 -6 -22 -2 -4 3 -14 0 -23 -8 -10 -8 -20 -13 -23 -13 -26 6 -465
-214 -491 -246 -3 -3 -23 -17 -45 -30 -59 -35 -378 -285 -443 -347 -7 -7 -32
-28 -56 -47 -23 -20 -76 -68 -117 -107 -41 -39 -87 -79 -103 -89 -43 -27 -56
-20 -136 80 -69 85 -120 128 -175 149 -44 17 -55 17 -95 5 -27 -8 -56 -26 -72
-45 -23 -28 -27 -39 -24 -88 4 -82 39 -143 149 -266 20 -22 39 -54 43 -72 7
-36 3 -40 -166 -194 -91 -83 -120 -109 -240 -209 -30 -25 -65 -55 -79 -67 -14
-13 -30 -26 -36 -30 -22 -17 -142 -120 -178 -153 -79 -72 -98 -77 -264 -73
-370 10 -471 4 -723 -48 -70 -14 -279 -76 -302 -89 -10 -6 -22 -10 -27 -10 -5
0 -44 -16 -85 -35 -42 -19 -78 -35 -81 -35 -12 0 -180 -85 -183 -92 -2 -4 -8
-8 -14 -8 -9 0 -51 -24 -149 -85 -42 -26 -96 -65 -118 -84 -13 -11 -27 -21
-30 -21 -7 0 -116 -105 -183 -177 -26 -28 -59 -53 -73 -55 -70 -14 -242 118
-295 226 -36 72 -35 109 5 191 46 93 60 174 38 225 -3 8 -7 17 -7 20 -4 17
-42 68 -62 83 -72 54 -194 3 -259 -107 -53 -90 -75 -256 -52 -386 12 -70 82
-178 167 -260 58 -56 139 -125 171 -148 34 -23 119 -109 119 -119 0 -4 -5 -28
-11 -53 -6 -25 -12 -56 -14 -70 -13 -77 -18 -101 -35 -165 -36 -135 -47 -316
-25 -453 19 -126 95 -337 158 -437 53 -85 109 -165 134 -190 59 -59 113 -105
138 -117 14 -6 25 -14 25 -18 0 -4 15 -13 33 -20 17 -8 38 -18 45 -23 44 -34
233 -91 342 -104 114 -13 282 -5 359 17 17 5 31 7 31 5 0 -5 120 39 170 62
106 48 238 157 298 246 127 186 192 442 154 597 -26 102 -74 164 -156 200
-197 88 -446 -9 -447 -174 0 -109 50 -187 129 -201 18 -3 47 -7 65 -10 35 -6
64 -34 73 -71 14 -55 -67 -157 -188 -237 -205 -135 -468 -147 -684 -33 -69 37
-80 45 -141 101 -123 112 -201 261 -238 455 -13 70 -14 316 -1 390 11 63 15
78 29 110 42 94 57 97 227 57 36 -9 85 -19 110 -22 68 -10 381 -13 415 -4 17
4 53 10 80 13 28 3 65 10 83 15 18 5 33 10 35 9 16 -3 279 81 291 93 6 5 16 9
24 9 16 0 230 106 289 143 24 15 47 27 52 27 5 0 11 3 13 8 2 4 37 29 78 57
119 79 206 149 325 264 190 182 225 197 338 148 31 -14 57 -24 57 -21 0 2 16
-3 36 -11 20 -8 47 -17 60 -19 12 -3 58 -14 101 -26 43 -12 85 -23 93 -25 8
-2 69 -17 135 -35 66 -18 131 -34 144 -36 13 -3 32 -9 41 -14 17 -9 51 -17
109 -25 18 -3 36 -7 40 -9 3 -3 24 -7 46 -10 72 -11 190 -45 193 -56 2 -5 10
-10 18 -10 8 0 14 -3 14 -6 0 -19 -38 -63 -78 -93 -111 -82 -513 -511 -602
-644 -14 -20 -28 -37 -32 -37 -5 0 -8 -6 -8 -14 0 -8 -3 -16 -7 -18 -12 -5
-125 -171 -188 -274 -16 -27 -33 -50 -37 -52 -4 -2 -8 -8 -8 -13 0 -6 -16 -36
-37 -67 -49 -77 -203 -377 -203 -396 0 -9 -4 -16 -10 -16 -5 0 -10 -8 -10 -17
0 -10 -7 -31 -16 -48 -34 -65 -108 -297 -130 -409 -19 -98 -25 -297 -12 -391
20 -142 84 -272 183 -370 86 -86 93 -91 180 -137 61 -32 189 -74 235 -77 93
-7 183 -4 334 13 46 6 75 -30 69 -85 -7 -73 -10 -223 -4 -234 3 -5 6 -16 8
-24 1 -8 12 -34 24 -57 42 -82 105 -62 157 48 21 46 28 69 38 138 18 120 26
152 51 207 16 34 58 56 128 67 22 4 67 14 100 22 33 9 65 17 70 19 6 1 17 5
25 8 8 3 33 11 55 17 22 6 47 14 55 17 8 3 20 7 27 8 21 5 206 76 227 88 12 6
26 12 31 13 17 3 258 123 269 134 5 5 16 10 23 10 8 0 19 5 26 10 18 16 198
120 207 120 4 0 10 7 14 15 3 8 10 15 17 15 16 0 299 196 414 287 58 46 111
89 115 93 3 3 25 21 50 41 183 149 453 411 575 560 21 25 94 116 108 134 128
164 267 413 336 603 76 211 76 319 -1 407 -114 130 -349 152 -618 60 -41 -14
-82 -27 -91 -29 -57 -14 -336 -145 -499 -234 -134 -73 -469 -279 -490 -302 -3
-3 -41 -32 -85 -64 -65 -48 -212 -168 -272 -221 -131 -116 -358 -337 -408
-396 -182 -218 -314 -432 -425 -684 -12 -27 -28 -64 -36 -82 -8 -17 -14 -34
-14 -38 0 -4 -6 -21 -14 -38 -16 -37 -57 -158 -82 -239 -21 -71 -38 -87 -100
-94 -67 -7 -288 -7 -350 0 -141 17 -238 132 -262 311 -10 79 -4 230 12 275 3
8 8 32 11 53 3 21 10 47 15 58 6 10 9 19 6 19 -5 0 27 99 44 135 31 68 50 115
50 123 0 5 7 24 16 43 9 19 26 54 38 79 11 25 25 48 31 52 5 4 7 8 3 8 -9 0
104 222 147 290 16 25 27 47 26 49 -2 2 1 7 6 10 8 6 85 118 92 135 2 5 10 16
18 25 8 9 37 45 65 81 104 135 222 262 503 544 254 255 340 332 407 368 49 28
52 28 187 23 254 -10 362 -8 536 9 33 3 185 28 259 42 107 20 441 122 523 160
17 8 33 14 36 14 26 0 425 201 529 267 21 12 40 23 42 23 9 0 139 92 190 134
115 94 179 182 215 294 10 31 9 145 -2 188 -9 35 -44 97 -75 129 -24 26 -96
78 -112 81 -3 0 -18 6 -35 13 -16 7 -38 14 -48 16 -9 2 -20 6 -25 8 -22 14
-127 22 -282 21 -187 0 -254 -6 -359 -31 -89 -20 -84 -19 -101 -26 -8 -4 -42
-16 -75 -28 -33 -12 -64 -25 -69 -30 -6 -5 -18 -9 -28 -9 -10 0 -18 -4 -18
-10 0 -5 -6 -10 -13 -10 -22 0 -251 -117 -375 -191 -64 -38 -119 -69 -124 -69
-4 0 -8 -4 -8 -9 0 -5 -8 -11 -17 -14 -10 -4 -40 -20 -68 -37 -27 -16 -68 -40
-90 -52 -97 -52 -304 -186 -355 -231 -8 -7 -28 -21 -43 -31 -16 -9 -36 -24
-45 -31 -93 -76 -213 -163 -239 -174 -38 -15 -113 -18 -238 -7 -130 11 -186
19 -245 31 -14 3 -41 8 -60 11 -19 3 -62 12 -95 20 -33 9 -67 17 -75 19 -8 1
-60 15 -115 30 -55 15 -104 29 -110 30 -5 1 -17 5 -25 8 -30 11 -87 27 -183
51 -97 24 -147 47 -147 68 0 12 38 49 170 168 46 41 88 80 94 85 6 6 38 33 71
60 33 28 62 52 65 55 3 3 37 32 75 65 39 33 84 72 100 88 17 15 56 40 87 56
50 25 67 29 120 25 75 -4 122 -10 163 -18 96 -20 305 -27 392 -13 34 5 202 41
293 63 64 15 172 45 205 57 57 21 159 68 165 77 3 4 16 13 29 20 13 6 37 24
55 38 46 39 186 184 186 193 0 4 6 14 13 21 44 48 113 184 142 278 9 30 19 62
22 70 7 19 9 32 17 100 15 139 31 185 69 199 21 8 117 6 164 -4 13 -3 35 -7
51 -10 101 -20 225 -70 302 -125 95 -67 169 -77 219 -31 17 16 32 37 32 48 2
32 -2 58 -12 68 -5 5 -9 15 -9 22 0 18 -13 34 -87 110 -46 47 -83 73 -147 103
-88 42 -295 114 -353 123 -17 3 -35 7 -40 10 -4 3 -35 8 -68 12 -57 6 -113 30
-101 42 3 4 2 11 -3 17 -7 10 -55 157 -52 163 0 2 -15 32 -33 68 -135 254
-323 419 -631 556 -24 10 -263 88 -285 93 -8 2 -22 6 -30 9 -24 8 -112 28
-149 33 -18 2 -36 6 -40 8 -3 2 -31 7 -61 11 -30 3 -66 8 -80 10 -14 2 -43 6
-65 10 -23 3 -51 7 -62 9 -35 7 -134 18 -188 21 -84 4 -89 5 -108 19 -13 10
-19 31 -22 78 -11 157 -29 253 -57 290 -7 10 -27 20 -43 24 -23 4 -35 0 -52
-18z m-178 -749 c7 -21 -81 -207 -153 -324 -17 -27 -45 -75 -63 -105 -17 -30
-34 -57 -38 -60 -9 -7 -71 -100 -71 -106 0 -3 -5 -10 -10 -17 -6 -7 -42 -55
-81 -107 -63 -85 -90 -120 -151 -194 -10 -12 -27 -32 -38 -46 -115 -140 -505
-530 -530 -530 -5 0 -10 -4 -12 -9 -9 -25 -322 -265 -488 -374 -47 -31 -90
-61 -97 -67 -7 -5 -15 -10 -19 -10 -3 0 -26 -13 -51 -30 -24 -16 -45 -30 -47
-30 -2 0 -42 -22 -89 -50 -193 -110 -340 -163 -455 -162 -122 1 -165 54 -167
210 -2 82 2 105 32 195 19 55 39 107 45 114 6 7 7 13 4 13 -8 0 88 185 108
210 6 8 18 27 26 42 7 15 21 37 32 47 10 11 18 23 18 27 0 3 12 21 28 39 15
18 43 52 62 76 19 24 53 64 75 89 70 79 350 350 362 350 3 0 13 8 22 18 13 15
57 52 164 138 9 8 61 43 115 79 53 36 102 70 109 75 7 6 14 10 16 10 3 0 49
25 103 56 176 100 434 234 451 234 5 0 19 6 33 13 45 24 168 68 258 94 147 42
265 73 302 79 19 3 39 9 45 12 5 3 22 7 39 9 16 2 32 5 34 8 3 3 20 5 38 5 24
0 34 -5 39 -21z m1847 -1081 c24 -16 25 -20 17 -60 -14 -74 -18 -88 -23 -96
-3 -5 -7 -19 -10 -33 -7 -36 -47 -126 -82 -189 -77 -136 -169 -215 -319 -274
-38 -16 -81 -33 -95 -39 -14 -5 -34 -12 -44 -14 -11 -2 -24 -7 -30 -12 -9 -7
-162 -61 -191 -67 -5 -1 -39 -9 -74 -18 -78 -18 -305 -15 -366 5 -54 19 -58
48 -12 92 45 43 86 77 92 77 3 0 13 8 23 18 23 22 105 91 157 132 22 17 47 36
55 43 87 69 150 116 150 111 0 -4 8 2 18 12 9 10 26 25 37 31 11 7 56 35 100
62 124 77 476 238 494 226 5 -3 12 -2 15 3 8 13 61 7 88 -10z m1228 -1208 c62
-15 100 -54 107 -110 14 -99 -87 -190 -328 -294 -146 -63 -718 -240 -849 -262
-14 -3 -47 -9 -75 -14 -75 -14 -171 -24 -255 -24 -63 -1 -75 2 -78 16 -4 19
15 37 133 131 69 54 143 106 220 154 52 32 316 181 360 203 28 14 53 30 57 35
4 6 8 7 8 3 0 -4 28 6 63 22 65 31 188 78 221 85 10 3 42 11 70 19 28 8 65 17
81 20 17 3 43 9 58 14 48 13 157 14 207 2z m-4260 -615 c13 -8 -4 -41 -39 -72
-37 -33 -337 -233 -350 -233 -6 0 -11 -4 -11 -10 0 -5 -5 -10 -11 -10 -6 0
-23 -8 -37 -19 -29 -20 -314 -165 -396 -201 -226 -100 -430 -120 -588 -59 -15
6 -29 17 -32 26 -6 15 38 62 104 112 19 14 44 34 54 43 49 44 234 158 316 195
19 8 63 28 97 44 161 75 465 159 631 173 24 3 45 6 47 8 7 6 205 9 215 3z
m4121 -1025 c33 -9 43 -18 56 -47 37 -89 -46 -313 -190 -513 -96 -133 -167
-212 -427 -470 -107 -107 -216 -212 -240 -233 -40 -34 -237 -184 -301 -229
-75 -52 -193 -128 -199 -128 -5 0 -10 -3 -12 -7 -3 -8 -64 -53 -72 -53 -2 0
-33 -18 -67 -39 -35 -22 -102 -59 -149 -83 -47 -24 -87 -45 -90 -48 -3 -3 -12
-6 -20 -8 -8 -2 -28 -10 -45 -17 -125 -56 -151 -68 -160 -69 -5 -2 -27 -10
-48 -19 -216 -94 -437 -124 -437 -61 0 9 11 34 24 57 13 23 27 62 30 87 12 81
56 154 290 478 60 83 184 237 230 287 157 167 314 320 436 425 35 30 82 72
105 93 23 20 47 37 54 37 6 0 11 4 11 9 0 4 32 30 71 57 112 77 249 164 249
158 0 -3 13 4 28 15 26 18 300 158 382 194 106 47 130 57 137 57 4 1 26 9 48
20 22 10 43 16 47 14 5 -3 8 0 8 7 0 7 2 10 5 7 3 -3 34 2 70 11 82 22 126 24
176 11z"/>
</g>
</svg>
