<svg xmlns="http://www.w3.org/2000/svg" width="21.378" height="21.377" viewBox="0 0 21.378 21.377">
  <g id="X" transform="translate(-1386.346 103.431)">
    <g id="Group_282" data-name="Group 282" transform="translate(1386.635 -103.459)">
      <path id="Path_440" data-name="Path 440" d="M1.357.151l24.3-.537a1.28,1.28,0,0,1,1.32,1.32,1.424,1.424,0,0,1-1.38,1.38L1.3,2.851a1.28,1.28,0,0,1-1.32-1.32A1.424,1.424,0,0,1,1.357.151Z" transform="translate(0 19.373) rotate(-45)" fill="#fff"/>
      <path id="Path_441" data-name="Path 441" d="M1.34.02l24.3.537a1.424,1.424,0,0,1,1.38,1.38,1.28,1.28,0,0,1-1.32,1.32L1.4,2.72A1.424,1.424,0,0,1,.02,1.34,1.28,1.28,0,0,1,1.34.02Z" transform="translate(18.799 21.434) rotate(-135)" fill="#fff"/>
    </g>
  </g>
</svg>
