<?xml version="1.0" encoding="utf-8"?>
<!-- Generator: Adobe Illustrator 23.0.6, SVG Export Plug-In . SVG Version: 6.00 Build 0)  -->
<svg version="1.1" id="Layer_1" xmlns="http://www.w3.org/2000/svg" xmlns:xlink="http://www.w3.org/1999/xlink" x="0px" y="0px"
	 viewBox="0 0 1220 1160" style="enable-background:new 0 0 1220 1160;" xml:space="preserve">
<style type="text/css">
	.st0{fill:#90D1E3;}
</style>
<path id="Exclusion_2" class="st0" d="M1220,1160H0V0h1220V1160z M931,765.5c-6.9,0-12.5,5.6-12.5,12.5c0,6.9,5.6,12.5,12.5,12.5
	s12.5-5.6,12.5-12.5c0-3.3-1.3-6.5-3.7-8.8C937.5,766.8,934.3,765.5,931,765.5z M845,709.5c-11.3,0-20.4,9.2-20.4,20.5
	s9.2,20.4,20.5,20.4c11.3,0,20.4-9.2,20.4-20.5c0-8.2-4.9-15.6-12.5-18.8C850.5,710,847.7,709.5,845,709.5z M1051,701.5
	c-11.3,0-20.4,9.2-20.4,20.5c0,11.3,9.2,20.4,20.5,20.4c11.3,0,20.4-9.2,20.4-20.5c0-8.2-4.9-15.6-12.5-18.8
	C1056.5,702,1053.7,701.5,1051,701.5z M960.5,674.5c-18.7,0-33.9,15.2-33.8,33.9c0,18.7,15.2,33.9,33.9,33.8
	c18.7,0,33.9-15.2,33.8-33.9c0-13.6-8.2-25.9-20.7-31.2C969.5,675.4,965,674.5,960.5,674.5z M891,657.5c-6.9,0-12.5,5.6-12.5,12.5
	c0,6.9,5.6,12.5,12.5,12.5s12.5-5.6,12.5-12.5c0-3.3-1.3-6.5-3.7-8.8C897.5,658.8,894.3,657.5,891,657.5z M1087,648.5
	c-6.9,0-12.5,5.6-12.5,12.5c0,6.9,5.6,12.5,12.5,12.5s12.5-5.6,12.5-12.5c0-3.3-1.3-6.5-3.7-8.8
	C1093.5,649.8,1090.3,648.5,1087,648.5z M814,632.5c-11.3,0-20.4,9.2-20.4,20.5c0,11.3,9.2,20.4,20.5,20.4
	c11.3,0,20.4-9.2,20.4-20.5c0-8.2-4.9-15.6-12.5-18.8C819.5,633,816.7,632.5,814,632.5z M1010,618.5c-11.3,0-20.4,9.2-20.4,20.5
	s9.2,20.4,20.5,20.4c11.3,0,20.4-9.2,20.4-20.5c0-8.2-4.9-15.6-12.5-18.8C1015.5,619,1012.7,618.5,1010,618.5z M754,607.5
	c-6.9,0-12.5,5.6-12.5,12.5c0,6.9,5.6,12.5,12.5,12.5s12.5-5.6,12.5-12.5c0-3.3-1.3-6.5-3.7-8.8C760.5,608.8,757.3,607.5,754,607.5z
	 M1066,575.5c-6.9,0-12.5,5.6-12.5,12.5c0,6.9,5.6,12.5,12.5,12.5s12.5-5.6,12.5-12.5c0-3.3-1.3-6.5-3.7-8.8
	C1072.5,576.8,1069.3,575.5,1066,575.5z M772.5,513.5c-18.7,0-33.9,15.2-33.9,33.9c0,18.7,15.2,33.9,33.9,33.9
	c18.7,0,33.9-15.2,33.9-33.9c0-13.6-8.2-25.9-20.7-31.2C781.5,514.4,777,513.5,772.5,513.5z M1066,498.5c-11.3,0-20.4,9.2-20.4,20.5
	c0,11.3,9.2,20.4,20.5,20.4c11.3,0,20.4-9.2,20.4-20.5c0-8.2-4.9-15.6-12.5-18.8C1071.5,499,1068.7,498.5,1066,498.5z M743,441.5
	c-11.3,0-20.4,9.2-20.4,20.5c0,11.3,9.2,20.4,20.5,20.4c11.3,0,20.4-9.2,20.4-20.5c0-8.2-4.9-15.6-12.5-18.8
	C748.5,442,745.7,441.5,743,441.5z M992.5,399.5c-18.7,0-33.9,15.2-33.8,33.9c0,18.7,15.2,33.9,33.9,33.8s33.9-15.2,33.8-33.9
	c0-13.6-8.2-25.9-20.7-31.2C1001.5,400.4,997,399.5,992.5,399.5z M828,442.5c-6.9,0-12.5,5.6-12.5,12.5c0,6.9,5.6,12.5,12.5,12.5
	s12.5-5.6,12.5-12.5c0-3.3-1.3-6.5-3.7-8.8C834.5,443.8,831.3,442.5,828,442.5z M893,376.5c-11.3,0-20.4,9.2-20.4,20.5
	c0,11.3,9.2,20.4,20.5,20.4s20.4-9.2,20.4-20.5c0-8.2-4.9-15.6-12.5-18.8C898.5,377,895.7,376.5,893,376.5z"/>
</svg>
