<svg xmlns="http://www.w3.org/2000/svg" width="1220" height="550.001" viewBox="0 0 1220 550.001">
  <path id="Exclusion_2" data-name="Exclusion 2" d="M4217,3977H2997V3427H4217v550Zm-289-84.5a12.5,12.5,0,1,0,8.839,3.661A12.42,12.42,0,0,0,3928,3892.5Zm-86-56a20.435,20.435,0,1,0,7.979,1.611A20.371,20.371,0,0,0,3842,3836.5Zm206-8a20.436,20.436,0,1,0,7.979,1.611A20.374,20.374,0,0,0,4048,3828.5Zm-90.5-27a33.891,33.891,0,1,0,13.234,2.672A33.786,33.786,0,0,0,3957.5,3801.5Zm-69.5-17a12.5,12.5,0,1,0,8.839,3.661A12.418,12.418,0,0,0,3888,3784.5Zm196-9a12.5,12.5,0,1,0,8.839,3.661A12.417,12.417,0,0,0,4084,3775.5Zm-273-16a20.436,20.436,0,1,0,7.979,1.611A20.373,20.373,0,0,0,3811,3759.5Zm196-14a20.435,20.435,0,1,0,7.979,1.611A20.377,20.377,0,0,0,4007,3745.5Zm-256-11a12.5,12.5,0,1,0,8.84,3.662A12.417,12.417,0,0,0,3751,3734.5Zm165.5-124.73a114.291,114.291,0,0,0-25.94,2.859,85.682,85.682,0,0,0-24.149,9.488,54.093,54.093,0,0,0-11.829,9.571,56.7,56.7,0,0,0-8.511,12.019c-6.973,13.187-9.529,29.808-7.2,46.8a80.264,80.264,0,0,0,3.023,13.356,73.467,73.467,0,0,0,5.336,12.593,64.983,64.983,0,0,0,7.683,11.252,58.088,58.088,0,0,0,20.27,15.279,65.6,65.6,0,0,0,10.9,3.807,92.383,92.383,0,0,0,23.046,2.618c4.874,0,10.068-.274,15.879-.838a119.234,119.234,0,0,0,24.367-4.632,66.4,66.4,0,0,0,11.469-4.791,47.559,47.559,0,0,0,9.981-7.116,57.661,57.661,0,0,0,9.438-11.663,71.084,71.084,0,0,0,6.526-13.75,85.343,85.343,0,0,0,4.732-29.837,91.131,91.131,0,0,0-3.872-24.647c-2.747-8.836-6.768-16.125-11.952-21.663-.455-.5-.971-1.061-1.52-1.564a56.342,56.342,0,0,0-11.2-8.5,68.538,68.538,0,0,0-12.734-5.692,103.353,103.353,0,0,0-27.653-4.8C3920.578,3609.817,3918.526,3609.769,3916.5,3609.769ZM4063,3702.5a12.5,12.5,0,1,0,8.84,3.661A12.418,12.418,0,0,0,4063,3702.5Zm-293.5-62a33.9,33.9,0,1,0,13.235,2.672A33.786,33.786,0,0,0,3769.5,3640.5Zm293.5-15a20.439,20.439,0,1,0,7.98,1.611A20.372,20.372,0,0,0,4063,3625.5Zm-323-57a20.436,20.436,0,1,0,7.979,1.611A20.372,20.372,0,0,0,3740,3568.5Zm249.5-42a33.892,33.892,0,1,0,13.234,2.672A33.789,33.789,0,0,0,3989.5,3526.5Zm-164.5,43a12.5,12.5,0,1,0,8.839,3.661A12.417,12.417,0,0,0,3825,3569.5Zm65-66a20.434,20.434,0,1,0,7.979,1.611A20.373,20.373,0,0,0,3890,3503.5Z" transform="translate(-2997 -3427)" fill="#90d1e3"/>
</svg>
